<svg version="1.1" xmlns="http://www.w3.org/2000/svg" xmlns:xlink="http://www.w3.org/1999/xlink" width="526.5" height="109.5" viewBox="0,0,526.5,109.5"><g transform="translate(-110.25,-133.35)"><g data-paper-data="{&quot;isPaintingLayer&quot;:true}" fill-rule="nonzero" stroke-linecap="butt" stroke-linejoin="miter" stroke-miterlimit="10" stroke-dasharray="" stroke-dashoffset="0" style="mix-blend-mode: normal"><path d="M110.25,242.85v-109.5h526.5v109.5z" fill="#ffffff" stroke="none" stroke-width="2.5"/><path d="M182.17895,199.63759v-38.97969h275.64212v38.97969z" fill="#ffffff" stroke="{{stroke_color}}" stroke-width="2.5"/><path d="M427.33764,188.85458c0,-5.58692 0,-13.65845 0,-16.7134c0,-2.34281 2.82683,-5.20581 4.93182,-5.20581c1.99221,0 6.28289,0 9.86365,0c3.15193,0 5.75379,3.76253 5.75379,6.57576c0,2.95943 0,9.71966 0,14.79546c0,3.56676 -3.2521,6.30177 -6.84975,6.30177c-3.10565,0 -6.46879,0 -8.2197,0c-2.27894,0 -5.4798,-2.43979 -5.4798,-5.75379z" fill="{{change_line_color}}" stroke="none" stroke-width="0"/><text transform="translate(433.02904,186.6271) scale(0.43263,0.43263)" font-size="40" xml:space="preserve" fill="#fbfdff" fill-rule="nonzero" stroke="none" stroke-width="1" stroke-linecap="butt" stroke-linejoin="miter" stroke-miterlimit="10" stroke-dasharray="" stroke-dashoffset="0" font-family="Sans Serif" font-weight="normal" text-anchor="start" style="mix-blend-mode: normal"><tspan x="0" dy="0">{{change_line}}</tspan></text><path d="M171.17821,200.4208l-39.49484,-0.63842l0.63842,-39.49484l39.49484,0.63842z" fill="#ffffff" stroke="{{stroke_color}}" stroke-width="2.5"/><path d="M143.17414,178.38393l0.00816,-1.16664l8.67237,-9.4395l9.99151,9.90354l-0.0105,1.49996l-9.99267,-9.73689z" fill="#ffffff" stroke="#000000" stroke-width="2.5"/><path d="M152.90646,169.70766l-0.47909,22.99501l-1.16642,-0.0243l0.47909,-22.99501z" fill="#ffffff" stroke="#000000" stroke-width="2.5"/><text transform="translate(223.45589,184.02668) scale(0.44608,0.44608)" font-size="40" xml:space="preserve" fill="#000000" fill-rule="nonzero" stroke="#000000" stroke-width="1" stroke-linecap="butt" stroke-linejoin="miter" stroke-miterlimit="10" stroke-dasharray="" stroke-dashoffset="0" font-family="Sans Serif" font-weight="normal" text-anchor="start" style="mix-blend-mode: normal"><tspan x="0" dy="0">{{current_station}} </tspan></text><path d="M304.68449,174.86637l0.5606,-0.00581l4.01408,4.34528l-4.0814,4.62602l-0.72078,0.00746l4.00812,-4.38502z" fill="#ffffff" stroke="#000000" stroke-width="1.5"/><path d="M297.35614,179.15824l11.05188,-0.11441l0.00581,0.5606l-11.05188,0.11441z" fill="#ffffff" stroke="#000000" stroke-width="1.5"/><text transform="translate(232.01472,194.13267) scale(0.15686,0.15686)" font-size="40" xml:space="preserve" fill="#000000" fill-rule="nonzero" stroke="none" stroke-width="1" stroke-linecap="butt" stroke-linejoin="miter" stroke-miterlimit="10" stroke-dasharray="" stroke-dashoffset="0" font-family="Sans Serif" font-weight="normal" text-anchor="start" style="mix-blend-mode: normal"><tspan x="0" dy="0">This Station</tspan></text><text transform="translate(315.04411,184.17374) scale(0.44608,0.44608)" font-size="40" xml:space="preserve" fill="#000000" fill-rule="nonzero" stroke="#000000" stroke-width="1" stroke-linecap="butt" stroke-linejoin="miter" stroke-miterlimit="10" stroke-dasharray="" stroke-dashoffset="0" font-family="Sans Serif" font-weight="normal" text-anchor="start" style="mix-blend-mode: normal"><tspan x="0" dy="0">{{next_station}}</tspan></text><text transform="translate(329.86766,193.63267) scale(0.15687,0.15687)" font-size="40" xml:space="preserve" fill="#000000" fill-rule="nonzero" stroke="none" stroke-width="1" stroke-linecap="butt" stroke-linejoin="miter" stroke-miterlimit="10" stroke-dasharray="" stroke-dashoffset="0" font-family="Sans Serif" font-weight="normal" text-anchor="start" style="mix-blend-mode: normal"><tspan x="0" dy="0">Next Station</tspan></text><path d="M194.39646,189.35459c0,-5.58692 0,-13.65845 0,-16.7134c0,-2.34281 2.82683,-5.20581 4.93182,-5.20581c1.99221,0 6.28289,0 9.86365,0c3.15193,0 5.75379,3.76253 5.75379,6.57576c0,2.95943 0,9.71966 0,14.79546c0,3.56676 -3.2521,6.30177 -6.84975,6.30177c-3.10565,0 -6.46879,0 -8.2197,0c-2.27894,0 -5.4798,-2.43979 -5.4798,-5.75379z" fill="{{stroke_color}}" stroke="none" stroke-width="0"/><text transform="translate(200.41139,187.12711) scale(0.43263,0.43263)" font-size="40" xml:space="preserve" fill="#fbfdff" fill-rule="nonzero" stroke="none" stroke-width="1" stroke-linecap="butt" stroke-linejoin="miter" stroke-miterlimit="10" stroke-dasharray="" stroke-dashoffset="0" font-family="Sans Serif" font-weight="normal" text-anchor="start" style="mix-blend-mode: normal"><tspan x="0" dy="0">{{current_line}}</tspan></text><text transform="translate(392.75001,181.53148) scale(0.21152,0.21152)" font-size="40" xml:space="preserve" fill="#000000" fill-rule="nonzero" stroke="#000000" stroke-width="1" stroke-linecap="butt" stroke-linejoin="miter" stroke-miterlimit="10" stroke-dasharray="" stroke-dashoffset="0" font-family="Sans Serif" font-weight="normal" text-anchor="start" style="mix-blend-mode: normal"><tspan x="0" dy="0">可换乘</tspan></text><text transform="translate(392.75001,188.53803) scale(0.10898,0.10898)" font-size="40" xml:space="preserve" fill="#000000" fill-rule="nonzero" stroke="none" stroke-width="1" stroke-linecap="butt" stroke-linejoin="miter" stroke-miterlimit="10" stroke-dasharray="" stroke-dashoffset="0" font-family="Sans Serif" font-weight="normal" text-anchor="start" style="mix-blend-mode: normal"><tspan x="0" dy="0">Transferable</tspan></text></g></g></svg>